<?xml version="1.0" ?>
<svg viewBox="0 0 32 32" xmlns="http://www.w3.org/2000/svg">
  <title/>
  <g id="mask">
    <path d="M28.33,9.72H27V9.29a2.73,2.73,0,0,0-2.46-2.72L16.1,5.73a.67.67,0,0,0-.2,0l-8.44.84A2.73,2.73,0,0,0,5,9.29v.43H3.67A3.68,3.68,0,0,0,0,13.39v3.66a3.67,3.67,0,0,0,3.67,3.67H5v.71a2.71,2.71,0,0,0,2,2.62l5.89,1.77a11.08,11.08,0,0,0,6.32,0l5.89-1.77h0A2.72,2.72,0,0,0,27,21.43v-.71h1.33A3.67,3.67,0,0,0,32,17.05V13.39A3.68,3.68,0,0,0,28.33,9.72Zm-24.66,9A1.67,1.67,0,0,1,2,17.05V13.39a1.67,1.67,0,0,1,1.67-1.67H5v7ZM25,21.43a.72.72,0,0,1-.52.7l-5.9,1.77a8.89,8.89,0,0,1-5.16,0l-5.9-1.77a.72.72,0,0,1-.52-.7V9.29a.73.73,0,0,1,.66-.73L16,7.73l8.34.83a.73.73,0,0,1,.66.73V21.43Zm5-4.38a1.67,1.67,0,0,1-1.67,1.67H27v-7h1.33A1.67,1.67,0,0,1,30,13.39Z"/>
    <path d="M10.16,12.71l5.18-.87a4.17,4.17,0,0,1,1.32,0l5.18.87H22a1,1,0,0,0,1-.84,1,1,0,0,0-.83-1.15L17,9.87a6,6,0,0,0-2,0l-5.17.86a1,1,0,1,0,.32,2Z"/>
    <path d="M22,14.72H10a1,1,0,1,0,0,2H22a1,1,0,0,0,0-2Z"/>
    <path d="M21.84,18.73l-5.18.87a4.17,4.17,0,0,1-1.32,0l-5.18-.87a1,1,0,0,0-.32,2l5.17.86a6.17,6.17,0,0,0,2,0l5.17-.86a1,1,0,1,0-.32-2Z"/>
  </g>
</svg>
