<?xml version="1.0" ?>
<!DOCTYPE svg  PUBLIC '-//W3C//DTD SVG 1.1//EN'  'http://www.w3.org/Graphics/SVG/1.1/DTD/svg11.dtd'>
<svg height="2.40321in" style="shape-rendering:geometricPrecision; text-rendering:geometricPrecision; image-rendering:optimizeQuality; fill-rule:evenodd; clip-rule:evenodd" version="1.1" viewBox="0 0 2446 2403" width="2.44554in" xml:space="preserve" xmlns="http://www.w3.org/2000/svg" xmlns:xlink="http://www.w3.org/1999/xlink">
  <defs>
  <style type="text/css">
      <![CDATA[
      .fil0 {fill:black;fill-rule:nonzero}
      ]]>
    </style>
  </defs>
  <g id="Layer_x0020_1">
    <path class="fil0" d="M1705 646l45 1586c0,6 0,3 0,5 0,45 -19,86 -49,116 -30,30 -71,49
    -116,50 -5,0 -3,0 -4,0l-716 0c-2,0 0,0 -5,0 -44,-1 -86,-20 -115,-50 -31,-30 -49,-71
    -49,-116l-1 0c0,-2 0,1 1,-5l45 -1586c-9,-11 -16,-24 -20,-38 -6,-19 -7,-41 -1,-64 6,-22
    12,-52 19,-88 36,-175 93,-456 243,-456l482 0c149,0 207,281 242,456 7,36 14,66 19,88 6,23
    6,45 0,64 -4,14 -11,27 -20,38zm-38 1589l-46 -1603c-1,-14 5,-28 17,-37 3,-3 6,-6 7,-10 2,-6
    2,-13 0,-21 -6,-23 -13,-55 -20,-91 -30,-149 -79,-390 -161,-390l-482 0c-82,0 -131,241 -161,
    390 -8,36 -14,68 -20,91 -2,8 -2,15 -1,21 2,4 4,7 7,10l0 0c11,8 18,20 17,34l-45 1606c0,3 0,
    -2 0,2l0 0c0,22 9,42 24,57 16,16 37,25 59,26 3,0 -1,0 3,0l716 0c4,0 -1,0 2,0 23,-1 44,-10
    59,-26 15,-15 25,-35 25,-57 0,-4 0,1 0,-2zm-646 -2102l202 0 202 0c18,0 35,7 50,18 14,11
    25,26 30,43l44 150c2,7 3,14 3,20 0,14 -4,27 -12,38 -8,11 -19,19 -33,24 -6,1 -13,2 -20,2l-264
    0 -265 0c-7,0 -13,-1 -19,-2 -14,-5 -26,-13 -34,-24 -7,-10 -12,-23 -12,-38 0,-6 1,-13 3,-20l45
    -150c5,-17 16,-32 30,-43 14,-11 32,-18 50,-18zm202 84l-202 0 1 0c0,0 0,0 0,0 -1,0 -1,1 -1,1l-3
    127 240 0 240 0 -38 -127c0,0 0,-1 -1,-1 0,0 0,0 0,0l0 0 -201 0zm-202 0l0 0c-1,0 0,0 1,0l-1 0zm404
    0l-1 0 0 0c0,0 1,0 1,0z"/>
    <path class="fil0" d="M796 664c-23,0 -41,-18 -41,-41 0,-23 18,-42 41,-42l853 0c23,0 42,19 42,42
    0,23 -19,41 -42,41l-853 0z"/><path class="fil0" d="M738 2256l-585 0c-2,0 1,0 -4,0 -40,-1 -77,
    -18 -104,-45 -28,-27 -45,-64 -45,-105 0,-3 0,0 0,-5l40 -1383c-8,-10 -14,-21 -18,-33 -5,-18 -6,-38 0,
    -59 5,-19 10,-45 16,-76 32,-154 82,-403 217,-403l421 0c45,0 80,26 109,67 23,34 42,79 58,129 2,7 2,14
    1,21l0 0c-9,40 -17,77 -23,109 -8,36 -14,68 -20,91 -2,8 -2,15 -1,21 2,4 4,7 7,10 12,9 18,23 17,37l-45
    1583c0,23 -19,41 -41,41l0 0zm-585 -83l544 0 44 -1527c-9,-11 -16,-24 -20,-38 -6,-19 -7,-41 -1,-64 2,-6
    3,-12 5,-19 -3,2 -6,3 -10,4 -6,2 -12,3 -18,3l-231 0 -231 0c-7,0 -13,-1 -19,-3 -13,-4 -24,-12 -32,-22
    -7,-10 -11,-23 -11,-36 0,-6 1,-13 3,-20l38 -130c5,-16 16,-31 29,-41 13,-10 30,-16 46,-16l177 0 176 0c17,0
    34,6 47,16 13,10 23,25 28,41l30 99c4,-20 8,-42 13,-63 -12,-38 -27,-71 -44,-95 -13,-20 -26,-31 -40,-31l-421
    0c-67,0 -109,207 -135,335 -7,32 -12,60 -18,81 -1,5 -1,10 0,14 1,3 2,5 4,7l0 0c11,7 17,20 17,34l-40 1402c0,3
    0,-3 0,2 0,18 8,34 20,46 13,12 30,20 48,21 3,0 -2,0 2,0zm313 -1826l-173 0 -30 101 203 0 202 0 -30 -101 -172 0z"/>
    <polygon class="fil0" points="93,655 781,655 781,738 93,738 "/>
    <path class="fil0" d="M2406 718l39 1383c0,5 1,2 1,5 0,41 -18,78 -45,105 -27,27 -64,44 -105,45l0 0c-5,0 -1,0 -4,
    0l-584 0c-23,0 -42,-19 -42,-42 0,0 0,-1 0,-2l-45 -1583c0,-14 7,-26 17,-34l0 0c3,-3 6,-6 7,-10 2,
    -6 2,-13 0,-21 -6,-23 -13,-55 -20,-91 -7,-33 -14,-69 -23,-109 -2,-8 -1,-17 2,-24 15,-48 34,-92 57,
    -126 28,-41 64,-67 108,-67l421 0c135,0 186,249 217,403 6,31 12,57 17,76 5,21 5,41 -1,59 -3,12 -9,
    23 -17,33zm-44 1386l-39 -1400c-2,-13 4,-28 16,-36 2,-2 4,-4 5,-7 1,-4 1,-9 -1,-14 -5,-21 -11,-49
    -17,-81 -26,-128 -69,-335 -136,-335l-421 0c-13,0 -27,11 -40,31 -17,24 -31,57 -44,95 5,21 10,43
    14,63l30 -99c4,-16 15,-31 28,-41 13,-10 30,-16 46,-16l177 0 176 0c17,0 34,6 47,16 13,10 23,25
    28,41l39 130c2,7 3,14 3,20 0,13 -4,26 -12,36 -7,10 -18,18 -32,22 -6,2 -12,3 -18,3l-231 0 -231
    0c-7,0 -13,-1 -19,-3 -3,-1 -6,-2 -9,-3 1,6 3,12 4,18 6,23 6,45 0,64 -4,14 -11,27 -20,38l43 1527
    544 0c5,0 0,0 2,0l0 0c19,-1 36,-9 48,-21 13,-12 20,-28 20,-46 0,-5 0,1 0,-2zm-382 -1757l-173 0
    -30 101 203 0 202 0 -30 -101 -172 0z"/><polygon class="fil0" points="1665,655 2352,655
    2352,738 1665,738 "/>
  </g>
</svg>
