<?xml version="1.0" ?><!DOCTYPE svg  PUBLIC '-//W3C//DTD SVG 1.1//EN'  'http://www.w3.org/Graphics/SVG/1.1/DTD/svg11.dtd'><svg height="12mm" style="shape-rendering:geometricPrecision; text-rendering:geometricPrecision; image-rendering:optimizeQuality; fill-rule:evenodd; clip-rule:evenodd" version="1.1" viewBox="0 0 846.66 846.66" width="12mm" xml:space="preserve" xmlns="http://www.w3.org/2000/svg" xmlns:xlink="http://www.w3.org/1999/xlink"><defs><style type="text/css">
   <![CDATA[
    .fil0 {fill:black;fill-rule:nonzero}
   ]]>
  </style></defs><g id="Layer_x0020_1"><path class="fil0" d="M529.46 598.58l-245.91 0c-4.67,21.79 -16.63,41.34 -33.78,55.5l313.47 0c-17.16,-14.16 -29.11,-33.7 -33.78,-55.5zm-405.51 55.5c-17.16,-14.15 -29.12,-33.72 -33.78,-55.5l-61.66 0c-11.47,0 -20.78,-9.3 -20.78,-20.78l0 -164.87c0,-11.47 9.31,-20.78 20.78,-20.78l12.52 0 0 -61.66c0,-11.47 9.31,-20.78 20.78,-20.78l153.33 0c21.36,-108.18 115.62,-43.22 43.22,-123.87 -18.24,-20.26 12.61,-48.02 30.85,-27.76l58.22 64.86 171.04 0c59.2,0 107.55,48.35 107.55,107.55l0 61.66 27.26 0c102.15,0 185.65,83.5 185.65,185.65 0,11.48 -9.31,20.78 -20.78,20.78l-95.31 0c-4.67,21.79 -16.63,41.34 -33.78,55.5l78 0c27.33,0 27.33,41.57 0,41.57l-721.11 0c-27.34,0 -27.34,-41.57 0,-41.57l78 0zm249.58 -220.37l0 123.31 155.93 0c9.73,-45.46 50.06,-78.1 96.69,-78.1 46.63,0 86.96,32.64 96.69,78.1l73.02 0c-10.29,-70.34 -71.3,-123.31 -142.58,-123.31 -93.25,0 -186.5,0 -279.75,0zm-41.56 123.31l0 -123.31c-94.23,0 -188.45,0 -282.68,0l0 123.31 40.88 0c9.73,-45.46 50.06,-78.1 96.69,-78.1 46.63,0 86.96,32.64 96.69,78.1l48.42 0zm108.38 -292.52l0 127.65 144.11 0 0 -61.66c0,-36.25 -29.74,-65.99 -65.99,-65.99l-78.12 0zm-41.56 127.65l0 -127.65 -78.12 0c-36.25,0 -65.99,29.74 -65.99,65.99l0 61.66 144.11 0zm-316.2 0l130.52 0 0 -40.88 -130.52 0 0 40.88zm104.27 128.33c-31.66,0 -57.32,25.66 -57.32,57.32 0,31.66 25.66,57.32 57.32,57.32 31.65,0 57.31,-25.66 57.31,-57.32 0,-31.65 -25.66,-57.32 -57.31,-57.32zm439.29 0c-31.66,0 -57.32,25.67 -57.32,57.32 0,31.66 25.66,57.32 57.32,57.32 31.65,0 57.31,-25.66 57.31,-57.32 0,-31.65 -25.66,-57.32 -57.31,-57.32z"/></g></svg>
